<svg width="81" height="83" xmlns="http://www.w3.org/2000/svg" xmlns:xlink="http://www.w3.org/1999/xlink" xml:space="preserve" overflow="hidden"><g transform="translate(-1685 -265)"><path d="M1685 306.5C1685 283.58 1703.13 265 1725.5 265 1747.87 265 1766 283.58 1766 306.5 1766 329.42 1747.87 348 1725.5 348 1703.13 348 1685 329.42 1685 306.5Z" fill="#00B050" fill-rule="evenodd"/><g><g><g><path d="M1736.07 289.185 1737.09 287.417 1740.63 287.417C1739.67 285.283 1737.16 284.33 1735.03 285.288 1734.21 285.656 1733.53 286.276 1733.08 287.057L1717.82 287.057C1716.65 285.034 1714.06 284.344 1712.03 285.516 1711.27 285.958 1710.67 286.626 1710.3 287.427L1713.83 287.417 1714.83 289.185 1713.81 290.952 1710.27 290.952C1711.23 293.086 1713.74 294.039 1715.87 293.081 1716.69 292.713 1717.37 292.093 1717.82 291.312L1733.08 291.312C1734.26 293.336 1736.85 294.025 1738.87 292.852 1739.63 292.411 1740.24 291.743 1740.6 290.942L1737.06 290.942Z" fill="#FFFFFF"/><path d="M1739.12 311.392C1739.12 311.93 1738.68 312.367 1738.14 312.368L1735.22 312.368C1734.68 312.368 1734.24 311.931 1734.24 311.392L1734.24 310.416C1734.24 309.876 1734.68 309.439 1735.22 309.439L1738.14 309.439C1738.68 309.441 1739.12 309.877 1739.12 310.416L1739.12 311.392ZM1713.88 306.51 1716.71 299.773C1716.86 299.419 1717.21 299.188 1717.6 299.185L1733.21 299.185C1733.6 299.188 1733.95 299.419 1734.1 299.773L1737.02 306.51ZM1716.66 311.392C1716.66 311.93 1716.23 312.366 1715.69 312.368L1712.76 312.368C1712.22 312.366 1711.78 311.93 1711.78 311.392L1711.78 310.416C1711.78 309.877 1712.22 309.441 1712.76 309.439L1715.69 309.439C1716.23 309.441 1716.66 309.877 1716.66 310.416L1716.66 311.392ZM1717.64 297.234C1716.46 297.222 1715.39 297.941 1714.96 299.041L1711.78 306.51C1710.17 306.515 1708.86 307.823 1708.85 309.439L1708.85 317.25C1708.86 318.327 1709.73 319.2 1710.81 319.203L1711.78 319.203 1711.78 322.62C1711.79 323.697 1712.66 324.57 1713.74 324.573L1714.71 324.573C1715.79 324.57 1716.66 323.697 1716.67 322.62L1716.67 319.203 1734.24 319.203 1734.24 322.62C1734.25 323.696 1735.12 324.568 1736.19 324.573L1737.17 324.573C1738.25 324.57 1739.12 323.697 1739.12 322.62L1739.12 319.203 1740.1 319.203C1741.18 319.2 1742.05 318.327 1742.05 317.25L1742.05 309.439C1742.05 307.823 1740.74 306.515 1739.12 306.51L1739.12 306.51 1735.95 299.041C1735.51 297.941 1734.45 297.222 1733.26 297.234Z" fill="#FFFFFF"/></g></g></g></g></svg>