<svg width="81" height="83" xmlns="http://www.w3.org/2000/svg" xmlns:xlink="http://www.w3.org/1999/xlink" xml:space="preserve" overflow="hidden"><defs><clipPath id="clip0"><rect x="2446" y="262" width="81" height="83"/></clipPath></defs><g clip-path="url(#clip0)" transform="translate(-2446 -262)"><path d="M2446 303.5C2446 280.58 2464.13 262 2486.5 262 2508.87 262 2527 280.58 2527 303.5 2527 326.42 2508.87 345 2486.5 345 2464.13 345 2446 326.42 2446 303.5Z" fill="#C04F15" fill-rule="evenodd"/><g><g><g><path d="M2473.83 303.704 2473.83 310.042C2473.83 313.021 2480.6 316 2489 316 2497.4 316 2504.17 313.021 2504.17 310.042L2504.17 303.704 2489 309.067 2473.83 303.704Z" fill="#FFFFFF"/><path d="M2489 306.738 2512.62 298.45 2489 290 2465.38 298.45 2468.42 299.533 2468.42 309.5C2468.42 310.096 2468.9 310.583 2469.5 310.583 2470.1 310.583 2470.58 310.096 2470.58 309.5L2470.58 300.292 2489 306.738Z" fill="#FFFFFF"/></g></g></g></g></svg>