<svg width="82" height="83" xmlns="http://www.w3.org/2000/svg" xmlns:xlink="http://www.w3.org/1999/xlink" xml:space="preserve" overflow="hidden"><g transform="translate(-3249 -265)"><path d="M3249 306.5C3249 283.58 3267.36 265 3290 265 3312.64 265 3331 283.58 3331 306.5 3331 329.42 3312.64 348 3290 348 3267.36 348 3249 329.42 3249 306.5Z" fill="#D86ECC" fill-rule="evenodd"/><g><g><g><path d="M3280.93 299.604 3309.13 294.61 3307.76 286.875 3269.23 293.729 3270.5 300.926 3270.6 320.167C3270.6 321.244 3271.48 322.125 3272.56 322.125L3307.81 322.125C3308.89 322.125 3309.77 321.244 3309.77 320.167L3309.77 299.604 3280.93 299.604ZM3302.91 289.714 3306.19 289.127 3306.29 289.714 3303.6 293.533 3299.78 294.268 3302.91 289.714ZM3294.98 291.134 3298.85 290.449 3295.67 295.002 3291.8 295.687 3294.98 291.134ZM3287 292.554 3290.87 291.869 3287.69 296.422 3283.82 297.107 3287 292.554ZM3279.07 293.974 3282.94 293.288 3279.76 297.842 3275.89 298.527 3279.07 293.974ZM3274.96 294.708 3272.12 298.772 3271.48 295.296 3274.96 294.708ZM3301.94 311.844 3278.44 311.844 3278.44 305.969 3301.94 305.969 3301.94 311.844Z" fill="#FFFFFF"/></g></g></g></g></svg>