<svg width="83" height="83" xmlns="http://www.w3.org/2000/svg" xmlns:xlink="http://www.w3.org/1999/xlink" xml:space="preserve" overflow="hidden"><g transform="translate(-1245 -1313)"><path d="M1328 1354.5C1328 1377.42 1309.42 1396 1286.5 1396 1263.58 1396 1245 1377.42 1245 1354.5 1245 1331.58 1263.58 1313 1286.5 1313 1309.42 1313 1328 1331.58 1328 1354.5Z" fill="#7F7F7F" fill-rule="evenodd"/><g><g><g><path d="M29.9868 6.24998C16.8769 6.24964 6.24907 16.8769 6.24873 29.9868 6.24839 43.0966 16.8757 53.7244 29.9855 53.7248 43.0954 53.7251 53.7233 43.0979 53.7236 29.988 53.7236 29.9872 53.7236 29.9863 53.7236 29.9855 53.7288 16.8819 43.1104 6.25517 30.0068 6.24998 30.0001 6.24997 29.9935 6.24997 29.9868 6.24998ZM32.443 42.7974C32.1786 43.4155 31.6861 43.908 31.068 44.1724 30.7501 44.3076 30.4079 44.3765 30.0624 44.3749 29.3726 44.3762 28.7105 44.1035 28.2218 43.6167 27.986 43.3806 27.7975 43.1017 27.6662 42.7949 27.5302 42.4767 27.4611 42.134 27.463 41.788 27.4613 41.0978 27.7343 40.4354 28.2218 39.9467 29.2324 38.9335 30.8731 38.9313 31.8863 39.9419 31.888 39.9436 31.8895 39.9451 31.8911 39.9467L31.8911 39.9467C32.1282 40.1847 32.3169 40.4664 32.4468 40.7761 32.5821 41.0962 32.6513 41.4404 32.6499 41.788 32.6507 42.1347 32.5803 42.4778 32.443 42.7961ZM34.6499 31.8224C32.9426 32.8519 31.8883 34.6902 31.8618 36.6836L28.1118 36.6836C28.1341 33.4 29.8515 30.361 32.653 28.648 35.0015 27.1758 35.7119 24.0786 34.2397 21.7301 32.7675 19.3816 29.6703 18.6713 27.3218 20.1434 25.857 21.0617 24.9679 22.6692 24.9687 24.398L21.2187 24.398C21.2169 19.5552 25.1412 15.6278 29.9841 15.626 34.8269 15.6242 38.7543 19.5486 38.7561 24.3914 38.7572 27.4097 37.2061 30.2163 34.6499 31.8211Z" fill="#FFFFFF" transform="matrix(1.01667 0 0 1 1257 1325)"/></g></g></g></g></svg>