<!-- 餐廳/美食 icon -->
<svg width="24" height="24" viewBox="0 0 24 24" fill="none" xmlns="http://www.w3.org/2000/svg">
  <circle cx="12" cy="12" r="10" fill="#FFC107"/>
  <path d="M8.5 9V6C8.5 5.72386 8.72386 5.5 9 5.5C9.27614 5.5 9.5 5.72386 9.5 6V9H8.5Z" fill="white"/>
  <path d="M10.5 9V6C10.5 5.72386 10.7239 5.5 11 5.5C11.2761 5.5 11.5 5.72386 11.5 6V9H10.5Z" fill="white"/>
  <path d="M12.5 9V6C12.5 5.72386 12.7239 5.5 13 5.5C13.2761 5.5 13.5 5.72386 13.5 6V9H12.5Z" fill="white"/>
  <rect x="8" y="9" width="6" height="1" fill="white"/>
  <rect x="10.5" y="10" width="1" height="8" fill="white"/>
  <rect x="14.5" y="6" width="1" height="4" fill="white"/>
  <rect x="14" y="10" width="2" height="1" fill="white"/>
  <rect x="15" y="11" width="1" height="7" fill="white"/>
</svg>
