<svg width="81" height="83" xmlns="http://www.w3.org/2000/svg" xmlns:xlink="http://www.w3.org/1999/xlink" xml:space="preserve" overflow="hidden"><defs><clipPath id="clip0"><rect x="1685" y="1110" width="81" height="83"/></clipPath></defs><g clip-path="url(#clip0)" transform="translate(-1685 -1110)"><path d="M1685 1151.5C1685 1128.58 1703.13 1110 1725.5 1110 1747.87 1110 1766 1128.58 1766 1151.5 1766 1174.42 1747.87 1193 1725.5 1193 1703.13 1193 1685 1174.42 1685 1151.5Z" fill="#8ED973" fill-rule="evenodd"/><g><g><g><path d="M1723.05 1137.71C1723.05 1136.34 1724.13 1135.26 1725.5 1135.26 1726.87 1135.26 1727.95 1136.34 1727.95 1137.71 1727.95 1137.76 1727.95 1137.81 1727.95 1137.86 1727.16 1137.76 1726.33 1137.71 1725.5 1137.71 1724.67 1137.71 1723.88 1137.76 1723.05 1137.86 1723.05 1137.81 1723.05 1137.76 1723.05 1137.71ZM1729.86 1138.25C1729.86 1138.05 1729.91 1137.9 1729.91 1137.71 1729.91 1135.26 1727.95 1133.3 1725.5 1133.3 1723.05 1133.3 1721.09 1135.26 1721.09 1137.71 1721.09 1137.9 1721.09 1138.05 1721.14 1138.25 1712.97 1140.21 1706.9 1147.55 1706.9 1156.31L1744.1 1156.31C1744.1 1147.55 1738.03 1140.21 1729.86 1138.25Z" fill="#FFFFFF"/><path d="M1705.92 1158.27 1705.92 1159.25C1705.92 1160.33 1706.8 1161.21 1707.87 1161.21L1743.12 1161.21C1744.2 1161.21 1745.08 1160.33 1745.08 1159.25L1745.08 1158.27 1705.92 1158.27Z" fill="#FFFFFF"/></g></g></g></g></svg>