<svg width="81" height="83" xmlns="http://www.w3.org/2000/svg" xmlns:xlink="http://www.w3.org/1999/xlink" xml:space="preserve" overflow="hidden"><defs><clipPath id="clip0"><rect x="2490" y="1110" width="81" height="83"/></clipPath></defs><g clip-path="url(#clip0)" transform="translate(-2490 -1110)"><path d="M2490 1151.5C2490 1128.58 2508.13 1110 2530.5 1110 2552.87 1110 2571 1128.58 2571 1151.5 2571 1174.42 2552.87 1193 2530.5 1193 2508.13 1193 2490 1174.42 2490 1151.5Z" fill="#78206E" fill-rule="evenodd"/><g><g><g><path d="M37.7072 45.9333 39.1979 22.4146 40.7437 42.8968 37.7072 45.9333ZM34.2843 47.4791 12.201 47.4791 14.1333 16.5625 16.5625 16.5625 16.5625 20.9791C16.5625 21.5864 17.0594 22.0833 17.6666 22.0833 18.2739 22.0833 18.7708 21.5864 18.7708 20.9791L18.7708 16.5625 29.8125 16.5625 29.8125 20.9791C29.8125 21.5864 30.3093 22.0833 30.9166 22.0833 31.5239 22.0833 32.0208 21.5864 32.0208 20.9791L32.0208 16.5625 36.2166 16.5625 34.2843 47.4791ZM18.7708 11.0417C18.7708 8.50207 20.4823 6.40416 22.801 5.74166 21.9729 6.95624 21.5312 8.39166 21.5312 9.93749L21.5312 13.25 18.7708 13.25 18.7708 11.0417ZM25.7271 5.68645C28.101 6.29374 29.8125 8.44687 29.8125 11.0417L29.8125 13.25 23.7396 13.25 23.7396 9.93749C23.7396 8.22603 24.5125 6.73541 25.7271 5.68645ZM29.2604 4.41666C32.2968 4.41666 34.7812 6.90103 34.7812 9.93749L34.7812 13.25 32.0208 13.25 32.0208 11.0417C32.0208 8.28124 30.5854 5.85208 28.3771 4.47187 28.6531 4.47187 28.9843 4.41666 29.2604 4.41666ZM41.9583 15.3479C41.9031 14.1885 40.9093 13.25 39.75 13.25L37.376 13.25C38.4802 13.25 39.4187 14.0781 39.5843 15.1271 39.4187 14.0781 38.5354 13.25 37.376 13.25L36.9895 13.25 36.9895 9.93749C36.9895 5.68645 33.5114 2.20833 29.2604 2.20833 27.7698 2.20833 26.3896 2.65 25.2302 3.3677 24.8989 3.3125 24.6229 3.3125 24.2916 3.3125 20.0406 3.3125 16.5625 6.79062 16.5625 11.0417L16.5625 13.25 13.1396 13.25C11.9802 13.25 10.9864 14.1333 10.9312 15.3479L8.88853 48.4729C8.83332 49.7426 9.82707 50.7916 11.0969 50.7916L35.3885 50.7916 36.6583 50.7916C37.2656 50.7916 37.8729 50.5156 38.2593 50.0739L43.5041 44.8843C43.9458 44.4427 44.2218 43.7802 44.1666 43.1729L41.9583 15.3479Z" fill="#FFFFFF" transform="matrix(1.00001 0 0 1 2504 1121)"/></g></g></g></g></svg>