<svg width="82" height="83" xmlns="http://www.w3.org/2000/svg" xmlns:xlink="http://www.w3.org/1999/xlink" xml:space="preserve" overflow="hidden"><defs><clipPath id="clip0"><rect x="3249" y="1110" width="82" height="83"/></clipPath></defs><g clip-path="url(#clip0)" transform="translate(-3249 -1110)"><path d="M3249 1151.5C3249 1128.58 3267.36 1110 3290 1110 3312.64 1110 3331 1128.58 3331 1151.5 3331 1174.42 3312.64 1193 3290 1193 3267.36 1193 3249 1174.42 3249 1151.5Z" fill="#46B1E1" fill-rule="evenodd"/><g><g><g><path d="M3302.69 1147.5C3302.69 1148.24 3302.08 1148.85 3301.33 1148.85L3279.67 1148.85C3278.92 1148.85 3278.31 1148.24 3278.31 1147.5L3278.31 1133.96C3278.31 1132.47 3279.53 1131.25 3281.02 1131.25L3286.44 1131.25C3286.44 1130.51 3287.05 1129.9 3287.79 1129.9L3293.21 1129.9C3293.95 1129.9 3294.56 1130.51 3294.56 1131.25L3299.98 1131.25C3301.47 1131.25 3302.69 1132.47 3302.69 1133.96L3302.69 1147.5ZM3300.66 1163.75C3299.51 1163.75 3298.62 1162.87 3298.62 1161.72 3298.62 1160.57 3299.51 1159.69 3300.66 1159.69 3301.81 1159.69 3302.69 1160.57 3302.69 1161.72 3302.69 1162.87 3301.81 1163.75 3300.66 1163.75ZM3280.34 1163.75C3279.19 1163.75 3278.31 1162.87 3278.31 1161.72 3278.31 1160.57 3279.19 1159.69 3280.34 1159.69 3281.49 1159.69 3282.38 1160.57 3282.38 1161.72 3282.38 1162.87 3281.49 1163.75 3280.34 1163.75ZM3301.33 1127.19 3291.85 1127.19 3291.85 1123.13 3298.62 1123.13 3298.62 1120.42 3282.38 1120.42 3282.38 1123.13 3289.15 1123.13 3289.15 1127.19 3279.67 1127.19C3276.69 1127.19 3274.25 1129.63 3274.25 1132.6L3274.25 1163.75C3274.25 1165.98 3276.08 1167.81 3278.31 1167.81L3278.92 1167.81 3275.88 1174.58 3278.85 1174.58 3281.9 1167.81 3299.1 1167.81 3302.15 1174.58 3305.12 1174.58 3302.08 1167.81 3302.69 1167.81C3304.92 1167.81 3306.75 1165.98 3306.75 1163.75L3306.75 1132.6C3306.75 1129.63 3304.31 1127.19 3301.33 1127.19Z" fill="#FFFFFF"/></g></g></g></g></svg>