<svg width="81" height="83" xmlns="http://www.w3.org/2000/svg" xmlns:xlink="http://www.w3.org/1999/xlink" xml:space="preserve" overflow="hidden"><defs><clipPath id="clip0"><rect x="141" y="1086" width="81" height="83"/></clipPath></defs><g clip-path="url(#clip0)" transform="translate(-141 -1086)"><path d="M141 1127.5C141 1104.58 159.132 1086 181.5 1086 203.868 1086 222 1104.58 222 1127.5 222 1150.42 203.868 1169 181.5 1169 159.132 1169 141 1150.42 141 1127.5Z" fill="#FF5D61" fill-rule="evenodd"/><g><g><g><path d="M23.5008 5.87497 23.4999 5.87497 2.93846 25.4352 5.16116 27.3348 23.4999 9.91401 23.5008 9.91401 41.8396 27.3348 44.0623 25.4352 23.5008 5.87497Z" fill="#FFFFFF" transform="matrix(1 0 0 1.00001 159 1098)"/><path d="M23.4999 12.6145 8.81245 26.5676 8.81245 41.1248 38.1873 41.1248 38.1873 26.5666ZM23.4999 36.978C23.4999 36.978 16.6457 31.7366 16.6457 27.5032 16.6457 24.6807 20.9594 21.6571 23.4999 26.6968 26.0398 21.6571 30.354 24.6807 30.354 27.5032 30.354 31.7366 23.4999 36.978 23.4999 36.978Z" fill="#FFFFFF" transform="matrix(1 0 0 1.00001 159 1098)"/></g></g></g></g></svg>