<svg width="82" height="83" xmlns="http://www.w3.org/2000/svg" xmlns:xlink="http://www.w3.org/1999/xlink" xml:space="preserve" overflow="hidden"><defs><clipPath id="clip0"><rect x="945" y="1086" width="82" height="83"/></clipPath></defs><g clip-path="url(#clip0)" transform="translate(-945 -1086)"><path d="M945 1127.5C945 1104.58 963.356 1086 986 1086 1008.64 1086 1027 1104.58 1027 1127.5 1027 1150.42 1008.64 1169 986 1169 963.356 1169 945 1150.42 945 1127.5Z" fill="#C62C2C" fill-rule="evenodd"/><g><g><g><path d="M12.7291 21.052C12.7291 22.6743 11.4139 23.9894 9.79161 23.9894 8.16928 23.9894 6.85413 22.6743 6.85413 21.052 6.85413 19.4296 8.16928 18.1145 9.79161 18.1145 11.4139 18.1145 12.7291 19.4296 12.7291 21.052Z" fill="#FFFFFF" transform="matrix(1.02129 0 0 1 963 1103)"/><path d="M13.2187 23.9894 19.0936 23.9894 19.0936 19.0936 18.1145 19.0936C15.4218 19.0936 13.2187 21.2968 13.2187 23.9894Z" fill="#FFFFFF" transform="matrix(1.02129 0 0 1 963 1103)"/><path d="M43.0831 19.0936 20.5624 19.0936 20.5624 30.8436C20.5624 31.9207 21.4436 32.8019 22.5207 32.8019L42.1039 32.8019 42.1039 35.2498 45.0414 35.2498 45.0414 21.052C45.0414 19.9749 44.1602 19.0936 43.0831 19.0936Z" fill="#FFFFFF" transform="matrix(1.02129 0 0 1 963 1103)"/><path d="M4.89581 13.2187C4.89581 12.3864 4.25935 11.7499 3.42706 11.7499 2.59478 11.7499 1.95832 12.3864 1.95832 13.2187L1.95832 35.2498 4.89581 35.2498 4.89581 30.354 19.0936 30.354 19.0936 25.4582 4.89581 25.4582 4.89581 13.2187Z" fill="#FFFFFF" transform="matrix(1.02129 0 0 1 963 1103)"/></g></g></g></g></svg>